<?xml version="1.0" encoding="iso-8859-1"?>
<!-- Generator: Adobe Illustrator 19.0.0, SVG Export Plug-In . SVG Version: 6.00 Build 0)  -->
<svg version="1.1" id="Capa_1" xmlns="http://www.w3.org/2000/svg" xmlns:xlink="http://www.w3.org/1999/xlink" x="0px" y="0px"
	 viewBox="0 0 512 512" style="enable-background:new 0 0 512 512;" xml:space="preserve">
<g>
	<g>
		<path d="M503.467,68.267c4.71,0,8.533-3.814,8.533-8.533v-51.2C512,3.814,508.177,0,503.467,0h-51.2
			c-4.71,0-8.533,3.814-8.533,8.533V25.6H68.267V8.533C68.267,3.814,64.444,0,59.733,0h-51.2C3.823,0,0,3.814,0,8.533v51.2
			c0,4.719,3.823,8.533,8.533,8.533H25.6v375.467H8.533c-4.71,0-8.533,3.814-8.533,8.533v51.2C0,508.186,3.823,512,8.533,512h51.2
			c4.71,0,8.533-3.814,8.533-8.533V486.4h375.467v17.067c0,4.719,3.823,8.533,8.533,8.533h51.2c4.71,0,8.533-3.814,8.533-8.533
			v-51.2c0-4.719-3.823-8.533-8.533-8.533H486.4V68.267H503.467z M469.333,443.733h-17.067c-4.71,0-8.533,3.814-8.533,8.533v17.067
			H68.267v-17.067c0-4.719-3.823-8.533-8.533-8.533H42.667V68.267h17.067c4.71,0,8.533-3.814,8.533-8.533V42.667h375.467v17.067
			c0,4.719,3.823,8.533,8.533,8.533h17.067V443.733z"/>
	</g>
</g>
<g>
	<g>
		<path d="M401.067,76.8H110.933c-4.71,0-8.533,3.814-8.533,8.533V153.6c0,4.719,3.823,8.533,8.533,8.533h34.133
			c4.71,0,8.533-3.814,8.533-8.533V128h76.8v256h-34.133c-4.71,0-8.533,3.814-8.533,8.533v34.133c0,4.719,3.823,8.533,8.533,8.533
			h119.467c4.71,0,8.533-3.814,8.533-8.533v-34.133c0-4.719-3.823-8.533-8.533-8.533H281.6V128h76.8v25.6
			c0,4.719,3.823,8.533,8.533,8.533h34.133c4.71,0,8.533-3.814,8.533-8.533V85.333C409.6,80.614,405.777,76.8,401.067,76.8z"/>
	</g>
</g>
<g>
</g>
<g>
</g>
<g>
</g>
<g>
</g>
<g>
</g>
<g>
</g>
<g>
</g>
<g>
</g>
<g>
</g>
<g>
</g>
<g>
</g>
<g>
</g>
<g>
</g>
<g>
</g>
<g>
</g>
</svg>
