<?xml version="1.0" encoding="iso-8859-1"?>
<!-- Generator: Adobe Illustrator 19.0.0, SVG Export Plug-In . SVG Version: 6.00 Build 0)  -->
<svg version="1.1" id="Capa_1" xmlns="http://www.w3.org/2000/svg" xmlns:xlink="http://www.w3.org/1999/xlink" x="0px" y="0px"
	 viewBox="0 0 512 512" style="enable-background:new 0 0 512 512;" xml:space="preserve">
<g>
	<g>
		<path d="M452,147.387H142c-4.142,0-7.5,3.358-7.5,7.5v80c0,4.142,3.358,7.5,7.5,7.5h310c4.142,0,7.5-3.358,7.5-7.5v-80
			C459.5,150.745,456.142,147.387,452,147.387z M444.5,227.387h-295v-65h295V227.387z"/>
	</g>
</g>
<g>
	<g>
		<path d="M452,277.5H142c-4.142,0-7.5,3.358-7.5,7.5v80c0,4.142,3.358,7.5,7.5,7.5h310c4.142,0,7.5-3.358,7.5-7.5v-80
			C459.5,280.858,456.142,277.5,452,277.5z M444.5,357.5h-295v-65h295V357.5z"/>
	</g>
</g>
<g>
	<g>
		<path d="M504.5,392.25c-4.142,0-7.5,3.358-7.5,7.5v32.75H363.5V422c0-15.164-12.336-27.5-27.5-27.5H176
			c-15.164,0-27.5,12.336-27.5,27.5v10.5H15V176c0-4.142-3.358-7.5-7.5-7.5S0,171.858,0,176v264c0,4.142,3.358,7.5,7.5,7.5h141v4.5
			c0,15.164,12.336,27.5,27.5,27.5h160c15.164,0,27.5-12.336,27.5-27.5v-4.5h141c4.142,0,7.5-3.358,7.5-7.5v-40.25
			C512,395.608,508.642,392.25,504.5,392.25z M348.5,452c0,6.893-5.607,12.5-12.5,12.5H176c-6.893,0-12.5-5.607-12.5-12.5v-30
			c0-6.893,5.607-12.5,12.5-12.5h160c6.893,0,12.5,5.607,12.5,12.5V452z"/>
	</g>
</g>
<g>
	<g>
		<path d="M504.5,32.5h-60h-28.25c-4.142,0-7.5,3.358-7.5,7.5c0,4.142,3.358,7.5,7.5,7.5H437v45H15v-45h368.875
			c4.142,0,7.5-3.358,7.5-7.5c0-4.142-3.358-7.5-7.5-7.5H7.5C3.358,32.5,0,35.858,0,40v60v43.5c0,4.142,3.358,7.5,7.5,7.5
			s7.5-3.358,7.5-7.5v-36h429.5H497v260c0,4.142,3.358,7.5,7.5,7.5c4.142,0,7.5-3.358,7.5-7.5V100V40
			C512,35.858,508.642,32.5,504.5,32.5z M497,92.5h-45v-45h45V92.5z"/>
	</g>
</g>
<g>
	<g>
		<path d="M89.821,182.562c4.151-4.68,6.679-10.83,6.679-17.563c0-14.612-11.888-26.5-26.5-26.5S43.5,150.388,43.5,165
			c0,6.733,2.528,12.883,6.679,17.563C40.727,188.947,34.5,199.76,34.5,212v28c0,4.142,3.358,7.5,7.5,7.5h56
			c4.142,0,7.5-3.358,7.5-7.5v-28C105.5,199.76,99.273,188.947,89.821,182.562z M70,153.5c6.341,0,11.5,5.159,11.5,11.5
			s-5.159,11.5-11.5,11.5s-11.5-5.159-11.5-11.5S63.659,153.5,70,153.5z M90.5,232.5h-41V212c0-11.304,9.196-20.5,20.5-20.5
			s20.5,9.196,20.5,20.5V232.5z"/>
	</g>
</g>
<g>
	<g>
		<path d="M89.821,314.562c4.151-4.68,6.679-10.83,6.679-17.563c0-14.612-11.888-26.5-26.5-26.5S43.5,282.388,43.5,297
			c0,6.733,2.528,12.883,6.679,17.563C40.727,320.947,34.5,331.76,34.5,344v28c0,4.142,3.358,7.5,7.5,7.5h56
			c4.142,0,7.5-3.358,7.5-7.5v-28C105.5,331.76,99.273,320.947,89.821,314.562z M70,285.5c6.341,0,11.5,5.159,11.5,11.5
			s-5.159,11.5-11.5,11.5s-11.5-5.159-11.5-11.5S63.659,285.5,70,285.5z M90.5,364.5h-41V344c0-11.304,9.196-20.5,20.5-20.5
			s20.5,9.196,20.5,20.5V364.5z"/>
	</g>
</g>
<g>
	<g>
		<path d="M485.606,70l2.697-2.697c2.929-2.928,2.929-7.678,0-10.606c-2.929-2.929-7.678-2.929-10.606,0L475,59.394l-2.697-2.697
			c-2.929-2.929-7.678-2.929-10.606,0c-2.929,2.929-2.929,7.678,0,10.606L464.394,70l-2.697,2.697
			c-2.929,2.929-2.929,7.678,0,10.606c1.464,1.464,3.384,2.197,5.303,2.197s3.839-0.732,5.303-2.197L475,80.606l2.697,2.697
			c1.464,1.464,3.384,2.197,5.303,2.197s3.839-0.732,5.303-2.197c2.929-2.929,2.929-7.678,0-10.606L485.606,70z"/>
	</g>
</g>
<g>
</g>
<g>
</g>
<g>
</g>
<g>
</g>
<g>
</g>
<g>
</g>
<g>
</g>
<g>
</g>
<g>
</g>
<g>
</g>
<g>
</g>
<g>
</g>
<g>
</g>
<g>
</g>
<g>
</g>
</svg>
